<svg width="35" height="35" viewBox="0 0 35 35" fill="none" xmlns="http://www.w3.org/2000/svg">
<path d="M20.0649 34.9998C19.7455 35.0007 19.4442 34.8532 19.2491 34.6004C19.0543 34.3477 18.988 34.0187 19.0698 33.7103C19.5162 31.8051 18.3157 27.5615 17.8382 26.1248C17.3517 25.1789 14.7148 21.471 0.8376 10.6365V10.6362C0.443868 10.3333 0.320922 9.79365 0.544402 9.35007C0.767881 8.90654 1.2746 8.6843 1.75235 8.82002C2.51087 9.0298 18.9227 13.6883 20.2342 22.7553C20.4574 22.0192 20.6805 21.2293 20.9168 20.4707C20.9168 20.3904 20.9613 20.2388 21.0105 20.0244V20.0247C20.7761 19.9111 20.5931 19.7138 20.4972 19.4716C20.4126 19.2484 18.4043 13.9743 21.0014 8.62391C22.9156 4.67504 26.8023 1.7879 32.5184 0.0479198H32.5188C32.8204 -0.0470113 33.1487 0.000609623 33.4111 0.1774C33.6635 0.354817 33.8263 0.633076 33.8571 0.940276C33.9063 1.48465 35.0706 14.3266 29.9438 19.9671H29.9441C28.418 21.6905 26.2128 22.6579 23.9111 22.6131H23.6254C22.8003 23.5503 21.8185 28.6103 21.756 30.4395C22.2512 32.8355 22.1086 33.7861 22.0728 33.951V33.9514C21.9648 34.4851 21.4615 34.8443 20.9215 34.7725C20.8331 34.7578 20.7423 34.7669 20.6585 34.7992C20.4886 34.9306 20.2797 35.0012 20.065 35L20.0649 34.9998ZM7.12478 13.0104C13.2959 18.048 16.4952 21.1848 18.1685 23.1171C17.5702 18.5121 11.7919 15.0677 7.14231 13.0104H7.12478ZM27.9309 5.45168C28.1522 5.45261 28.3676 5.52265 28.5469 5.65244C28.9935 5.98734 29.0978 6.6145 28.7831 7.07577C24.852 12.7782 23.326 19.1234 23.0091 20.5784H23.0094C23.1021 20.5485 23.198 20.5277 23.2948 20.5158H23.9017C25.6198 20.5613 27.2689 19.8382 28.3993 18.5437C32.0403 14.528 32.0179 5.73752 31.8664 2.41326C27.4043 3.99722 24.3746 6.37552 22.8577 9.50353C22.1066 11.0834 21.7266 12.8143 21.7469 14.5636C23.15 11.4367 24.9496 8.50346 27.1013 5.83537C27.3024 5.5845 27.6096 5.44226 27.9311 5.4516L27.9309 5.45168Z" fill="#746F52"/>
</svg>
